<?xml version="1.0" encoding="utf-8"?>
<!-- Generator: Adobe Illustrator 21.0.0, SVG Export Plug-In . SVG Version: 6.00 Build 0)  -->
<svg version="1.1" id="Слой_1" xmlns="http://www.w3.org/2000/svg" xmlns:xlink="http://www.w3.org/1999/xlink" x="0px" y="0px"
	 viewBox="0 0 3098 952.5" style="enable-background:new 0 0 3098 952.5;" xml:space="preserve">
<style type="text/css">
	.st0{fill:#FFFFFF;}
	.st1{fill:#D81466;}
	.st2{stroke:#000000;stroke-miterlimit:10;}
</style>
<path class="st0" d="M603,372c-1.4-32.7-2.8-65.4-4.3-98.2c-0.4-8.9-1.1-18.7-7.4-25c-6.2-6.2-15.7-7-24.4-7.5
	c-28.6-1.6-75-4.6-82.9,28.3c-9.9,41.5-23.6,75.3-47,111.4c-24,37-50.4,73.7-61.3,116.4c-3.5,13.7-5.3,27.9-5.3,42.1
	c0,8.6,0.8,17.9,6.3,24.5c6.1,7.4,16.5,9.7,26.1,10.6c14.3,1.3,28.8,0.4,42.9-2.7c6.1-1.3,12.4-3.2,17.2-7.2
	c13.6-11.5,8.9-33,6.1-50.6c-6.3-39.1,3.4-80.6,26.5-112.8c2.4,43.2,7.1,86.3,14.2,129c1.3,7.6,2.7,15.6,7.5,21.7
	c8.1,10.4,22.8,12.4,35.9,13.6c21.9,2,47.8,2.3,61.2-15.2c8.5-11.1,9.1-26.2,10.5-40.2c2.6-25.8,9.6-51.2,20.6-74.7
	c1.4,36.6,12.4,72.9,31.7,104c3.7,6,7.9,11.9,14,15.4c5.8,3.3,12.7,3.9,19.4,4.5c13,1.1,26.2,2.1,38.8-0.8
	c12.7-2.9,24.9-10.5,30.2-22.4c7.4-16.5-0.3-35.3-6.5-52.3c-24.1-66.3-25.1-138.6-22.8-209.1c0.4-12.2,0.2-26.1-8.9-34.3
	c-7.7-7-19.3-7.3-29.7-7.2c-11.7,0.1-23.4,0.3-35.1,0.4c-12.3,0.1-25.8,0.8-34.5,9.4c-12.2,12.1-8,32.1-8.3,49.3
	C633,321.3,617.8,347.4,603,372z"/>
<path class="st0" d="M2741.6,225.4c6-23.5,12.1-47.1,18.1-70.6c2.4-9.3,4.5-20.2-1.5-27.8c-5.9-7.5-16.9-8-26.4-7.2
	c-54.6,5-104.3,35.7-142.6,75s-66.7,86.9-94.7,134c-7.8,13.2-15.8,26.6-19.8,41.3c-6.6,24.1-2.3,50.1,5.7,73.8
	c23.2,69.1,76,125.1,136.6,165.6s129.2,67,197.2,93.3c-82,0.3-165.1-9.1-241.1-39.9c-76-30.8-144.6-84.6-182.1-157.5
	c-91.1,157.5-187.8,321.1-341.3,418.8c-26.8,17.1-57.8,32.4-89.2,27.3c-43.2-6.9-72.1-51.6-75.8-95.2
	c-7.1-83.9,41.3-160.2,92.7-221.4c26.1-31,54.8-59.8,85.7-86c25.1-21.2,72.4-40.8,91.6-65.8c-48,62.6-87.9,131.5-118.4,204.3
	c-8.5,20.3-14.4,47.7,3.2,60.8c15.3,11.3,36.9,2.6,53.2-7.1c105.5-63.4,183.6-163.8,249.1-268c6.9-10.9,13.7-22.2,16.2-34.8
	c2.7-14-0.3-28.5-3.2-42.5c-7.9-37.3-16.4-75.9-39.2-106.5s-64.2-50.8-99.8-37.1c32.1-36.9,77.8-65.4,126.7-63.8
	c48.9,1.5,97.5,40.8,97.8,89.7C2510.6,164.7,2597,49.3,2723.7,7.7c44.9-14.7,107.3-11,123,33.5c4.8,13.7,3.8,28.9,0.6,43.1
	C2834,142.6,2786.6,186,2741.6,225.4z"/>
<path class="st0" d="M2843.2,569c-32.7,0-65.4-0.1-98.1-0.1c13.5-85.6,10.1-173.8-9.9-258.1c-37.4-3-74.5-9.3-110.8-18.8
	c-16.7,47.8-57.1,86.7-105.5,101.7c24.2-71.8,17.4-138.6,25.4-211.2c95.3,32.1,175.3,62,275.4,17.4c36.6-16.3,69.5-39.9,105.4-57.7
	c35.9-17.8,77-29.8,115.9-20.4c-32.3,68.7-45.6,146.2-38.2,221.7c-45-17.9-80-59.3-89.9-106.7c-26.8,17.4-69.3,14.7-82.3,43.9
	c-4.5,10-3.9,21.4-3.2,32.4C2832.6,398.4,2837.9,483.7,2843.2,569z"/>
<path class="st0" d="M414.5,269.4c-0.5,9.5-0.8,19.1-0.7,28.6c-59.4,3-118.8,5.2-178.3,6.6c1.8-21.4,3.6-42.8,5.5-64.2
	c7.9-0.6,15.7-1.2,23.6-1.8c-2.9-17.3,1.2-38.5-12.6-49.3c-8.9-7-22.3-5.7-31.8,0.4s-15.9,16.1-20.9,26.2
	C177.1,260.8,175.5,313,179,363c3.6,50,11.9,100,7.7,149.9c30.7-27.9,52-66,59.5-106.8c-7.4-0.2-14.8-0.5-22.3-0.7
	c2.3-21,4.6-42,7-63c59.1-2,118.2-4,177.3-6.1c-2.6,20.4-5.3,40.8-7.9,61.2c-7.2,0.9-14.4,1.8-21.6,2.7
	c-20.8,52.6-54.4,101.2-100.6,133.8s-105.8,48.1-161,35.6c-3.2-0.7-6.7-1.7-8.8-4.2c-3.6-4.2-1.9-10.5-0.7-15.9
	c5.3-23.8-2.1-48.6-13-70.4s-25.1-41.8-35.1-64c-15.6-34.8-19.8-74.6-12.2-111.9c6.9-33.6,19.3-67,39.2-95.1
	c14.8-21,33.3-39.3,54.6-53.7c44.8-30.1,101.3-42,154.4-32.5c16.9,3,33.7,8.2,47.9,17.8c30.3,20.3,44.9,57.2,52.1,92.9
	c7.5,0,14.9,0,22.4,0C416.3,244.7,415.2,257.1,414.5,269.4z"/>
<path class="st1" d="M249.7,362.9c44.6-1.7,89.2-3.4,133.9-5c0,6.3,0,12.7,0,19c-6.9,0.2-13.7,0.5-20.6,0.7
	c-11.8,51.5-42.4,98.5-84.8,130.2c-42.3,31.7-96.1,47.7-148.8,44.5c8.1-23.4,2.5-49.5-7.7-72s-24.7-42.8-35.6-65
	c-32.5-66.1-22.9-141.7,22.1-199.6c24.7-31.7,58.8-56.3,97.3-68.4c37.7-11.8,80.6-11.5,115,8.1s57.3,60.8,48.9,99.4
	c8.7,0.1,17.4,0.3,26.1,0.4c0,7.1,0,14.1,0,21.2c-45.8,1.9-91.5,3.7-137.3,5.6c0.2-6.1,0.4-12.3,0.6-18.4c6.6-0.8,13.2-1.7,19.9-2.5
	c1.7-0.2,3.4-0.5,4.7-1.5c1.8-1.4,2.3-3.9,2.7-6.1c2.6-16,4.2-32.6,0.6-48.4c-3.6-15.8-13.1-31.1-27.8-37.9
	c-16.3-7.6-36.3-3.6-51,6.7c-14.7,10.3-24.6,26.2-31.7,42.7c-21.3,49.5-19.5,105.6-15.4,159.4c4.1,53.8,10.1,108.8-4.1,160.9
	c8.4,4.7,19,4.3,28,0.8s16.6-9.7,23.6-16.4c37.2-35.6,59.1-86.6,59.5-138c-6.6,0.5-13.3,1-19.9,1.4
	C248.5,377.2,249.1,370.1,249.7,362.9z"/>
<path class="st1" d="M590.6,459.4c-11.5-63.5-16-128.2-13.6-192.6c-13.8,0-53.3-7.1-64.4,0.6c-10.7,7.4-12.6,42.4-18.2,55.6
	c-6.6,15.4-15.2,29.8-24.1,43.9c-35.4,56.4-77,114.3-78.2,180.8c19.7,0,39.3,0,59,0c-18-74.3,6.3-157.4,61.6-210.2
	c1.3,69.2,10.6,138.2,27.4,205.3c19-1.2,37.9-2.4,56.9-3.6c8.9-65,30.4-128.2,63-185c0.5,62,14.1,123.9,39.6,180.5
	c19.4-0.4,38.7-0.9,58.1-1.3c0.3-22.5-6.7-44.3-12.4-66c-17.9-68.2-23.9-139.4-17.8-209.6c-23.7,0-47.5,0-71.2,0
	c0,21.3,0,42.9-5.4,63.4c-3.5,13.3-9.2,25.9-14.9,38.4C620.8,392.8,605.7,426.1,590.6,459.4z"/>
<path class="st0" d="M1036.7,245.8c-1.2-2-2.7-3.8-4.6-5.3c-6.3-5-15-5.1-23.1-5.1c-14.6,0.1-29.2,0.3-43.9,0.4
	c-11.7,0.1-23.6,1.4-32.2,10.1c-11.4,11.5-7.4,26.4-9.8,41c-2.9,17.1-15.8,30.4-28,42.7c-23.3,23.7-46,48.3-63.3,76.6
	s-29.2,60.8-29,94c0.1,14.6,2.7,29.6,10.1,42.2c14.5,24.4,46,35.6,73.9,30.3s51.6-24.7,67.1-48.5c3.2-5,8.4-11,13.8-8.5
	c-2,15.8-1.8,35.8,12.5,42.6c5,2.4,10.7,2.5,16.2,2.5c13.1,0.1,26.3,0.2,39.4,0.4c9.4,0.1,19.3,0.1,27.6-4.3
	c11.4-6,17.5-19.3,18.4-32.2c0.9-12.9-2.5-25.6-5.6-38.2c-18-71.5-29.5-144.7-34.4-218.3C1041.3,260.5,1040.5,252.1,1036.7,245.8z"
	/>
<path class="st1" d="M1010.1,256c-7.6,0-15.2,0-22.7,0c-9,0-25.1-3.2-33.4,0c-10.3,3.9-6,7.5-5.5,19.2c0.4,10-0.3,20.1-4.7,29.3
	c-3.3,6.8-8.5,12.5-13.6,18.1c-31.2,34-64,67.4-86.9,107.4c-10.2,17.8-18.4,37.3-18.9,57.8s8.2,42,25.7,52.8
	c23.4,14.4,55.4,5.3,75.4-13.5c20.1-18.8,31.1-45,42.1-70.1c1.7-3.8,5.1-8.4,9-6.8c0.8,29,3.8,57.9,9.1,86.4
	c24.6-1.1,49.3-2.1,73.9-3.2c-21.1-91.1-34.1-184.1-38.8-277.5C1017.2,256,1013.6,256,1010.1,256z"/>
<path class="st0" d="M956.9,319.3c3,24.7,6,49.4,9,74.2c0.9,7.9,1.9,15.8,1.4,23.6c-1.7,25.4-20.6,48.8-45,56
	c-5.6,1.6-11.7,2.5-17.2,0.5c-8.2-2.9-13.1-11.4-15.5-19.7c-13.2-47.6,27.4-91.5,52.8-126.7C945.9,322.3,951.4,316.9,956.9,319.3z"
	/>
<path class="st2" d="M941.7,367.7c2.8,15,5.7,30.2,3.9,45.3c-1.2,10.7-5.2,21.6-13.6,28.3c-5.8,4.6-13.4,6.8-20.7,6
	c-4.5-0.5,5.1-38.6,6.4-42.1C923.2,391.1,932.2,379.3,941.7,367.7z"/>
<path class="st0" d="M1913.5,247.7c-1.2-2-2.7-3.8-4.6-5.3c-6.3-5-15-5.1-23-5.1c-14.6,0.1-29.2,0.3-43.8,0.4
	c-11.7,0.1-23.6,1.4-32.1,10c-11.4,11.5-7.4,26.4-9.8,40.9c-2.9,17-15.8,30.3-27.9,42.7c-23.2,23.6-45.9,48.2-63.2,76.5
	c-17.3,28.3-29.1,60.6-28.9,93.8c0.1,14.6,2.6,29.6,10.1,42.1c14.4,24.4,46,35.5,73.8,30.2s51.5-24.7,66.9-48.4
	c3.2-5,8.4-10.9,13.8-8.5c-2,15.7-1.8,35.7,12.5,42.5c5,2.4,10.7,2.5,16.2,2.5c13.1,0.1,26.2,0.2,39.3,0.4
	c9.4,0.1,19.2,0.1,27.5-4.3c11.4-6,17.4-19.3,18.3-32.2s-2.5-25.6-5.6-38.1c-18-71.4-29.5-144.4-34.3-217.9
	C1918.1,262.4,1917.4,254,1913.5,247.7z"/>
<path class="st1" d="M1887,258c-7.6,0-15.1,0-22.7,0c-9,0-25-3.2-33.4,0c-10.3,3.9-5.9,7.5-5.5,19.2c0.4,10-0.3,20.1-4.7,29.2
	c-3.3,6.8-8.5,12.5-13.6,18.1c-31.1,34-63.8,67.2-86.7,107.2c-10.2,17.7-18.4,37.2-18.8,57.7c-0.4,20.4,8.2,42,25.6,52.7
	c23.3,14.4,55.3,5.3,75.3-13.4c20-18.7,31-44.9,42-70c1.7-3.8,5.1-8.4,9-6.8c0.8,28.9,3.8,57.8,9.1,86.2c24.6-1.1,49.2-2.1,73.8-3.2
	c-21-90.9-34-183.7-38.7-276.9C1894.1,258,1890.5,258,1887,258z"/>
<path class="st0" d="M1833.9,321.1c3,24.7,6,49.3,9,74c0.9,7.8,1.9,15.7,1.4,23.6c-1.7,25.4-20.5,48.7-44.9,55.9
	c-5.6,1.6-11.7,2.5-17.1,0.5c-8.2-2.9-13.1-11.3-15.4-19.7c-13.2-47.5,27.4-91.3,52.7-126.4C1822.9,324.1,1828.5,318.7,1833.9,321.1
	z"/>
<path class="st2" d="M1818.8,369.4c2.8,14.9,5.7,30.1,3.9,45.2c-1.2,10.6-5.2,21.6-13.5,28.2c-5.8,4.6-13.4,6.8-20.7,6
	c-4.5-0.5,5.1-38.6,6.4-42C1800.3,392.7,1809.3,381,1818.8,369.4z"/>
<path class="st0" d="M1206.5,261.9c-1.5-2.7-3.5-5.2-6.1-7.4c-9.1-7.5-22.2-7.7-34.2-7.4c-21.9,0.4-53.9-1.1-72.8,11.7
	c-19.9,13.3-14.8,42.8-10.4,62.7c10.6,48.2,27.1,97.4,62.9,132.6c2.6,2.6,5.4,5.1,8.9,6.5c4.1,1.6,8.7,1.3,13,0.7
	c22.5-2.8,44-11.7,61.6-25.6c-2,29.2-4,58.5-6.1,87.7c-0.6,9.2-1.2,18.8,2.3,27.4c5.7,14,21.4,22.3,36.9,24s31-2,46.2-5.6
	c7.8-1.9,15.7-3.8,22.2-8.4c17.3-12.1,17.4-36.3,16.5-56.9c-2.4-56.1,0.8-112.4,9.6-167.9c1.6-10.3,3.5-20.7,6.8-30.6
	c3.4-10.1,8.3-19.8,10.3-30.2s0.7-22.3-7-29.9c-8.8-8.8-22.9-9.6-35.6-9.8c-17.5-0.3-35.9-0.3-51.1,8
	c-19.5,10.7-29.1,32.7-33.2,53.9s-4.2,43.3-11.1,63.8c-14.9-14.8-23.9-35.1-24.8-55.7C1210.8,290.9,1213.3,274,1206.5,261.9z"/>
<path class="st1" d="M1179.6,270.7c-2.7-0.8-5.7-0.9-8.6-0.9c-14.2-0.1-28.5-0.2-42.7-0.3c-36.3-0.3-22.5,30.6-16.6,54.2
	c7.5,29.9,18.2,59.1,31.9,86.9c3.8,7.6,8.1,15.5,15.6,19.9c15.2,9,34.6-0.6,49.3-10.3c14.7-9.7,33.1-20.2,49.2-12.8
	c-5.6,47.4-8.6,95.2-9.2,142.9c18.2,1,36.5,0.1,54.5-2.7c7.9-1.2,16.8-3.6,20.5-10.4c2.3-4.3,2-9.4,1.7-14.3
	c-6.1-88.5,2.8-178,26.2-263.8c-22.1,3.5-44.4,5.3-66.8,5.4c-12.5,28.4-19.4,59.1-20.3,90c-0.3,8.8-0.2,18.2-5.6,25.3
	c-6.6,8.8-20,10.9-30.6,7s-18.4-12.5-24.1-21.9c-13.7-22.6-16.6-49.9-16.2-76.1c0.1-5.9-0.1-12.7-4.9-16.3
	C1181.9,271.6,1180.8,271.1,1179.6,270.7z"/>
<path class="st0" d="M1549.3,343.2c-13.9-9.1-27.7-18.3-41.6-27.4c6.2-14.1,10-29.1,11.2-44.4c0.4-5.2,0.5-10.6-1.7-15.2
	c-5.2-10.9-19.7-12.8-31.8-13.2c-20-0.6-42.6-0.8-60.7,8.8c-24.5,12.9-22.6,38.2-26,62.9c-7.9,57.8-13.2,116-15.6,174.4
	c-1.1,25.5-1.6,51.6,6.5,75.7c16.7,4.2,33.7,8.4,50.9,7.3c17.2-1.2,34.8-8.6,44-23.2c7.7-12.2,8.4-27.4,8.9-41.8
	c1.3-36.7,2.5-73.4,3.8-110.1c14.6,7.2,29.3,14.5,43.9,21.7c-2.2,33.8-3.2,67.7-3.2,101.6c0,11.1,0.5,23.1,7.4,31.8
	c10.1,12.8,29,12.9,45.3,12c19.7-1.2,41.8-3.6,53.9-19.2c8.2-10.6,9.5-24.9,10-38.3c2.7-70.6-8.3-143.9,16.5-210.1
	c3.9-10.5,8.8-21.1,9.3-32.3c0.5-11.2-4.9-23.7-15.6-27.4c-4.6-1.6-9.6-1.3-14.5-1.1c-10.5,0.5-21.1,1.1-31.6,1.6
	c-19.3,1-41.6,3.7-51.8,20.1c-4.2,6.7-5.6,14.8-6.8,22.6c-3.5,21.1-7,42.2-10.4,63.3C1549.3,343.3,1549.3,343.2,1549.3,343.2z"/>
<path class="st1" d="M1568.4,379.6c-29-15.7-57.9-31.5-86.9-47.2c9.7-20.4,14.1-43.2,12.7-65.7c-0.6-9.7-61.1,4.4-66.1,11.7
	c-5.6,8.1-4.8,30.3-6.2,40.2c-2.1,14.6-4.1,29.1-5.9,43.7c-7.5,59.6-12.5,119.5-15.1,179.6c13.2,6.6,28.5,6.6,43.3,6.5
	c6.6-0.1,13.8-0.3,18.8-4.5c6.2-5.1,7-14.1,7.3-22.1c2.3-55.9,4.7-111.7,7-167.6c30.6,16.5,61.1,33,91.7,49.5
	c-1.8,37.2-3.6,74.3-5.4,111.5c-0.4,8.9-0.6,18.7,4.9,25.7c10.7-2.8,22-0.8,33.1-1s23.4-3.5,28.9-13.1c3.5-6.1,3.6-13.5,3.5-20.5
	c-0.7-80.9-3.6-164,23.1-240.3c-2.3-3.6-4.7-7.2-7-10.8c-10.5,3.7-22.1,2.3-33.2,2.7c-11.2,0.4-23.5,3.4-29.6,12.8
	c-3.3,5.1-4.2,11.2-5.1,17.2c-4.5,30.7-9,61.4-13.5,92C1568.5,379.7,1568.5,379.6,1568.4,379.6z"/>
<path class="st1" d="M2780.6,161.6c8.9-22-7.3-48.1-29.4-56.8c-22-8.7-47.2-4.1-69.4,4.2c-95.8,35.6-155.8,128.8-208.9,216.1
	c-9.9,16.3-20.1,33.3-22.6,52.2c-2.1,15.3,1.1,30.9,5.1,45.8c32,117.9,128.1,216.2,245.2,250.8c-129.8-9.4-251.6-93.7-306-211.9
	c-89.5,156.7-182.8,317.8-326.3,427.1c-38.8,29.5-94.1,54.8-133.5,26.1c-53.7-39-24.7-129.7-1.8-178.2
	c35.5-74.8,94.4-116.6,146.3-176.6c-37.4,43.2-60.9,98.1-66.4,154.9c-1.2,12.6-1.4,26,4.7,37.1c9.5,17.1,31.9,23.6,51.2,20.1
	s36-15.1,51.6-26.8c92.7-69.3,172.4-155.8,234.1-253.7c9.8-15.5,19.2-31.6,23.4-49.5c7.4-31.6-2.5-64.3-12.3-95.2
	c-16.7-52.8-47.3-116.3-102.7-115.2c32.8-26.1,81.9-29.7,118.2-8.7c36.3,21.1,57.5,65.4,51.1,106.9c68.2-125.2,155-253.5,289.1-302
	c39.2-14.2,95.6-12.9,108.2,26.9C2841.7,93.9,2800.5,126.3,2780.6,161.6z"/>
<path class="st0" d="M2647,349.7c-70.5,21-117.8,82.2-99.7,159.3c5.4,23.2,18.6,45.4,39.3,57.1c20.7,11.8,49.2,10.7,66.2-5.9
	c9.9,5.9,20,11.8,31.3,14.1s24,0.4,32.2-7.7c15-14.8,7.6-39.6,2.4-60c-8.2-32.5-8.1-67.2,0.5-99.6c2.7-10.2,6.3-20.9,3.4-31.1
	c-3.3-11.9-14.4-19.7-25.3-25.5c-5.5-2.9-11.2-5.5-17.4-6.2c-5.4-0.6-10.8,0.2-16.1,1.3C2658.2,346.7,2652.6,348.1,2647,349.7z"/>
<path class="st1" d="M2666,362c-0.1,4.8-0.1,9.7-0.2,14.5c-3.2,2.7-7.8,3.6-11.8,2.3c-3.1-1-5.7-3.2-8.7-4.5
	c-10-4.6-21.6,0.6-30.6,6.8c-44,29.9-65.8,77.4-48.4,129.3c6.2,18.3,19.3,35.2,37.6,41.5s41.4-0.7,49.8-18.1
	c10.1,18.4,34.3,27.7,54.1,20.8c3.6-11.1-3.7-22.4-7.9-33.3c-3.3-8.7-4.7-18-5.6-27.3c-3.1-32.3-0.6-65.1,7.4-96.6
	c1.6-6.3,3.4-13,1.6-19.2C2699.1,364.2,2680.6,361.8,2666,362z"/>
<path class="st0" d="M2655.1,408.5c0.2,0,0.3,0,0.5,0c-0.9,16.6-1.8,33.2-2.7,49.8c-0.7,12.4-1.5,25.2-7.2,36.2s-17.9,19.7-30,17.3
	c-2.7-0.5-5.4-1.6-7.2-3.7c-2.9-3.3-3-8.1-3-12.5c0.3-26.1,0.1-48.5,17-70.2C2630.3,415.4,2642.4,407.7,2655.1,408.5z"/>
<path class="st2" d="M2633.8,440.7c0,9.3,1.4,19.7,0.4,28.9c-0.5,4.4-10.1,21.7-10,22C2620.5,474.3,2624,455.5,2633.8,440.7
	C2633.8,440.6,2633.8,440.7,2633.8,440.7z"/>
<path class="st0" d="M2964.1,355.9c-69.5,20.7-116,81-98.2,156.9c5.3,22.8,18.3,44.7,38.7,56.3s48.5,10.6,65.2-5.8
	c9.7,5.8,19.7,11.6,30.8,13.9c11.1,2.3,23.7,0.4,31.7-7.5c14.7-14.6,7.5-39,2.4-59.1c-8.1-32-7.9-66.1,0.5-98.1
	c2.7-10.1,6.2-20.6,3.4-30.6c-3.2-11.7-14.2-19.5-24.9-25.1c-5.4-2.8-11.1-5.4-17.1-6.1c-5.3-0.6-10.6,0.2-15.8,1.3
	C2975.1,352.9,2969.5,354.2,2964.1,355.9z"/>
<path class="st1" d="M2982.8,367.9c-0.1,4.8-0.1,9.5-0.2,14.3c-3.2,2.7-7.7,3.6-11.6,2.3c-3.1-1-5.6-3.1-8.6-4.5
	c-9.8-4.5-21.3,0.6-30.2,6.7c-43.4,29.4-64.8,76.3-47.7,127.3c6.1,18,19,34.7,37,40.9s40.8-0.7,49.1-17.8
	c10,18.1,33.7,27.3,53.3,20.5c3.6-10.9-3.7-22-7.8-32.8c-3.3-8.6-4.6-17.7-5.5-26.9c-3.1-31.8-0.6-64.1,7.3-95.1
	c1.6-6.2,3.4-12.8,1.5-18.9C3015.3,370.2,2997.2,367.7,2982.8,367.9z"/>
<path class="st0" d="M2972,413.7c0.2,0,0.3,0,0.5,0c-0.9,16.3-1.8,32.7-2.7,49c-0.7,12.2-1.4,24.8-7.1,35.6s-17.6,19.4-29.6,17.1
	c-2.7-0.5-5.3-1.6-7.1-3.6c-2.9-3.2-3-8-2.9-12.3c0.3-25.7,0.1-47.7,16.8-69.1C2947.6,420.5,2959.5,413,2972,413.7z"/>
<path class="st2" d="M2951,445.5c0,9.2,1.4,19.4,0.4,28.5c-0.5,4.3-9.9,21.4-9.9,21.7C2937.9,478.5,2941.4,460,2951,445.5
	C2951,445.4,2951,445.4,2951,445.5z"/>
<path class="st1" d="M2806.9,284.6c0.7-3.4,1.8-6.7,3.4-9.8c5.2-10.4,15.1-17.5,24.9-23.7c31.2-19.6,65.9-33.7,102-41.5
	c-6.4,37.5,12.1,78.1,44.5,98c-3.2-59.1,7.9-118.8,32.1-172.8c-80,13-145.6,70.3-222.5,95.8c-56.7,18.8-119.2,19.1-176.3,1.7
	c-41.9-12.8-46.5-26-49.7,23.1c-2.3,35.8-8.3,71.3-17.8,105.9c31.1-21.9,54-55.2,63.2-92.1c40.8,7.5,81.6,14.9,122.4,22.4
	c7.1,1.3,14.7,2.9,19.6,8.1c4.9,5.1,6.2,12.6,7.1,19.7c10.5,76.8,12.3,154.8,5.3,232.1c19.4-1.4,38.8-2.7,58.2-4.1
	c-5.7-78.3-11.4-156.6-17.1-234.9C2805.6,303.2,2805,293.5,2806.9,284.6z"/>
</svg>
